<?xml version="1.0" encoding="UTF-8" standalone="no"?>
<!DOCTYPE svg PUBLIC "-//W3C//DTD SVG 1.1//EN" "http://www.w3.org/Graphics/SVG/1.1/DTD/svg11.dtd">
<svg height="100%" stroke-miterlimit="10" style="fill-rule:nonzero;clip-rule:evenodd;stroke-linecap:round;stroke-linejoin:round;" version="1.1" viewBox="0 0 378 290" width="100%" xml:space="preserve" xmlns="http://www.w3.org/2000/svg" xmlns:xlink="http://www.w3.org/1999/xlink">
<defs/>
<g id="Без-названия">
<path d="M279.784 140.414C306.482 143.494 330.58 152.542 349.267 172.171C373.636 197.801 370.62 238.352 349.188 264.109C330.069 287.089 297.163 295.021 269.618 284.121C234.94 270.396 215.088 232.192 215.471 195.838C216.077 138.706 252.415 80.7446 294.003 43.3536C311.579 27.5652 330.984 13.5217 352.22 1.22291C352.72 0.935654 353.177 0.994169 353.592 1.39845L360.199 8.00531C360.593 8.39895 360.603 8.80324 360.231 9.21816C325.026 49.0189 297.673 89.4739 279.209 139.504C279.018 140.047 279.209 140.35 279.784 140.414Z" fill="#0c0c0b" fill-rule="nonzero" opacity="1" stroke="none"/>
<path d="M75.9925 140.589C115.921 143.861 159.312 168.182 162.265 211.892C163.637 232.351 157.126 251.039 143.37 266.263C119.081 293.169 76.0085 297.047 47.2511 273.061C22.877 252.709 10.9932 226.691 11.5996 195.008C12.6848 139.408 46.1978 84.8938 85.9347 47.5347C104.776 29.8207 125.507 14.4047 148.125 1.28674C148.693 0.967277 149.404 1.06514 149.865 1.52612L156.137 7.82976C156.647 8.34044 156.663 8.87239 156.184 9.42562C121.522 48.572 93.9619 88.8036 75.3861 139.648C75.1733 140.222 75.3754 140.536 75.9925 140.589Z" fill="#0c0c0b" fill-rule="nonzero" opacity="1" stroke="none"/>
</g>
</svg>
