<?xml version="1.0" encoding="UTF-8" standalone="no"?>
<!DOCTYPE svg PUBLIC "-//W3C//DTD SVG 1.1//EN" "http://www.w3.org/Graphics/SVG/1.1/DTD/svg11.dtd">
<svg height="100%" stroke-miterlimit="10" style="fill-rule:nonzero;clip-rule:evenodd;stroke-linecap:round;stroke-linejoin:round;" version="1.1" viewBox="0 0 510 198" width="100%" xml:space="preserve" xmlns="http://www.w3.org/2000/svg" xmlns:xlink="http://www.w3.org/1999/xlink">
<defs/>
<clipPath id="ArtboardFrame">
<rect height="198" width="510" x="0" y="0"/>
</clipPath>
<g clip-path="url(#ArtboardFrame)" id="Без-названия">
<path d="M327.66 91.9102C321.953 93.3792 316.161 94.8989 310.285 96.4692C309.559 96.6634 309.12 96.7394 308.968 96.6972C308.253 96.4937 307.748 95.8596 307.708 95.1158C307.668 94.3721 308.102 93.6809 308.791 93.3919C316.921 90.0486 325.271 87.2625 333.84 85.0337C334.184 84.9437 334.489 84.7332 334.701 84.4385C344.866 70.1197 356.319 56.9407 369.059 44.9015C373.225 40.963 386.358 35.3149 387.877 44.1417C391.651 65.987 353.292 82.083 337.525 88.5163C337.143 88.6741 336.812 88.9227 336.563 89.2381C328.736 99.1667 320.074 109.108 318.998 116.238C318.881 116.978 319.19 117.72 319.798 118.159C320.405 118.597 321.207 118.658 321.873 118.315C328.331 115.03 334.406 111.392 340.096 107.398C341.16 106.655 342.266 106.588 343.414 107.196C343.828 107.415 343.862 107.685 343.515 108.006C335.993 114.819 326.318 121.443 316.035 123.038C315.378 123.138 314.712 122.931 314.227 122.476C313.743 122.021 313.494 121.37 313.552 120.708C314.452 110.818 321.733 100.104 328.103 92.5941C328.23 92.4559 328.246 92.2517 328.144 92.0933C328.041 91.9348 327.844 91.8602 327.66 91.9102ZM377.138 45.0028C364.512 53.1331 353.925 66.1263 345.162 78.8916C345.072 79.0257 345.08 79.2026 345.182 79.3277C345.284 79.4528 345.455 79.4968 345.605 79.4362C357.598 74.8392 383.306 63.1883 383.546 47.9282C383.61 44.0277 380.076 43.1032 377.138 45.0028Z" fill="#fdf4e7" fill-rule="nonzero" opacity="1" stroke="none"/>
<path d="M272.179 76.6754C272.314 77.5012 273.06 78.0882 273.901 78.0305C280.246 77.6379 288.199 76.2955 293.543 80.8166C294.137 81.3154 294.386 82.1137 294.182 82.8616C293.978 83.6095 293.358 84.1706 292.593 84.2992C288.161 85.059 283.957 82.3869 280.259 83.666C269.317 87.4272 224.119 99.8505 230.35 117.302C230.49 117.696 230.747 118.033 231.084 118.264C234.605 120.679 238.957 121.565 244.141 120.923C258.198 119.176 269.532 117.681 286.097 114.984C294.075 113.68 302.243 111.995 310.374 112.122C310.664 112.118 310.912 112.328 310.957 112.615C311.001 112.901 310.828 113.177 310.551 113.262C307.866 114.114 305.321 114.798 302.915 115.313C284.839 119.155 264.695 122.802 242.482 126.255C231.743 127.914 222.967 122.988 224.309 110.97C225.107 103.738 241.9 93.5185 248.358 90.6945C256.649 87.0557 263.492 84.2654 268.886 82.3236C269.309 82.1716 269.372 81.9268 269.076 81.5891C262.757 74.4212 270.242 66.063 276.358 61.6559C286.059 54.657 296.87 50.0009 308.791 47.6876C315.034 46.4718 317.504 51.4614 314.173 56.8816C313.982 57.1913 313.662 57.3992 313.302 57.4482C312.942 57.4972 312.578 57.3823 312.311 57.1349C308.385 53.5763 304.232 53.9436 299.153 55.5899C291.77 57.9961 270.394 66.0503 272.179 76.6754Z" fill="#fdf4e7" fill-rule="nonzero" opacity="1" stroke="none"/>
<path d="M91.7933 102.016C73.8527 102.7 55.912 103.316 37.9714 103.865C28.6676 104.144 21.8037 103.996 17.3797 103.422C11.7442 102.687 1.7017 97.6723 0.16936 91.3023C-2.88266 78.5497 36.2111 68.7731 45.2278 66.6709C68.9981 61.1241 92.7051 56.7043 116.564 57.5022C137.194 58.186 152.365 62.8084 164.637 78.917C184.088 104.448 112.043 128.408 97.72 133.347C94.9931 134.284 92.5616 134.676 90.4256 134.525C89.6821 134.471 89.0043 134.079 88.5868 133.461C88.1694 132.844 88.0582 132.069 88.2854 131.359C89.3871 127.939 95.8078 112.97 85.246 116.238C76.2419 119.024 65.085 126.888 55.1311 131.08C51.2052 132.739 40.1749 138.387 36.9456 133.714C36.6997 133.348 36.6433 132.887 36.7936 132.473C40.9221 121.392 65.4902 114.617 76.8751 113.072C83.4857 112.177 88.5893 108.711 92.1859 102.675C92.4561 102.21 92.3252 101.991 91.7933 102.016ZM113.651 85.9201C114.127 85.9193 114.558 86.1982 114.754 86.634C114.95 87.0697 114.876 87.5825 114.563 87.9464L105.622 98.2169C105.446 98.4203 105.391 98.7018 105.477 98.9569C105.562 99.2119 105.777 99.4025 106.04 99.4579L108.459 99.9645C108.986 100.048 109.361 100.522 109.322 101.054C109.282 101.586 108.841 101.999 108.307 102.003L100.734 102.434C100.422 102.451 100.127 102.571 99.8983 102.776L89.4378 111.919C89.2743 112.055 89.2076 112.276 89.2682 112.48C89.3288 112.684 89.5051 112.832 89.7164 112.856C98.5052 114.123 96.289 122.823 93.6422 128.281C93.1357 129.32 93.4438 129.691 94.5667 129.396C109.599 125.457 168.423 107.462 163.18 85.3883C160.609 74.5732 145.919 67.722 136.181 64.7206C133.217 63.8088 128.097 63.0532 120.819 62.4538C106.8 61.2887 91.8186 62.8337 78.3315 65.3538C56.178 69.4992 33.8345 75.4555 11.301 83.2227C6.29873 84.9577 2.44888 89.2128 8.14767 93.7338C12.0482 96.8323 16.4975 98.4702 21.4955 98.6474C46.8488 99.5719 73.7978 97.8623 99.5183 97.3557C99.9405 97.3473 100.282 97.1784 100.544 96.8492C102.95 93.8478 109.713 85.8822 113.651 85.9201ZM43.5182 131.283C43.687 131.316 43.8686 131.337 44.0627 131.346C44.4511 131.354 44.9112 131.253 45.4431 131.042C55.5574 127.116 65.2623 122.54 74.5576 117.314C74.701 117.255 74.769 117.09 74.7096 116.947C74.6501 116.804 74.4857 116.735 74.3423 116.795C63.4513 119.75 53.0837 123.984 43.2396 129.497C42.8865 129.693 42.6931 130.088 42.7554 130.487C42.8176 130.886 43.1222 131.204 43.5182 131.283Z" fill="#fdf4e7" fill-rule="nonzero" opacity="1" stroke="none"/>
<path d="M482.224 92.822L478.513 93.9111C477.846 94.1053 477.509 93.8605 477.5 93.1766L477.462 90.7705C477.461 90.6215 477.372 90.4873 477.235 90.4272C477.099 90.3672 476.94 90.3925 476.829 90.4918L465.9 100.281C465.369 100.757 464.552 100.711 464.077 100.18L463.355 99.3693C463.042 99.0231 463.038 98.6812 463.342 98.3435C466.85 94.405 474.626 85.3249 479.273 83.438C479.701 83.2644 480.181 83.2698 480.605 83.4532C481.029 83.6365 481.361 83.9824 481.527 84.4131L482.769 87.6045C482.952 88.0724 483.471 88.3126 483.946 88.149L497.763 83.5773C498.129 83.4565 498.531 83.5721 498.778 83.8686C499.024 84.1651 499.063 84.5822 498.877 84.9197C497.45 87.444 495.348 89.618 492.57 91.4416C485.403 96.1526 479.565 102.067 475.056 109.184C474.854 109.514 474.866 109.934 475.087 110.249C475.308 110.565 475.696 110.714 476.069 110.628L505.108 103.979C505.406 103.92 505.707 104.07 505.84 104.343C505.974 104.616 505.907 104.945 505.678 105.144C499.903 109.804 479.311 114.566 471.89 114.338C471.147 114.315 470.462 113.929 470.058 113.305C469.654 112.681 469.581 111.898 469.864 111.21C472.713 104.296 477.728 99.002 482.553 93.3286C482.641 93.2219 482.65 93.0704 482.575 92.9544C482.499 92.8384 482.357 92.7848 482.224 92.822Z" fill="#fdf4e7" fill-rule="nonzero" opacity="1" stroke="none"/>
<path d="M449.64 99.4453C451.565 98.1789 454.477 95.6208 457.01 96.4692C457.336 96.5747 457.566 96.8645 457.596 97.2077C457.627 97.5508 457.451 97.8823 457.149 98.0522C453.92 99.8379 445.195 105.701 444.194 109.425C443.738 111.138 444.439 112.16 446.296 112.489C446.724 112.571 447.163 112.518 447.55 112.337L463.279 105.207C463.563 105.082 463.887 105.085 464.168 105.216C464.45 105.347 464.661 105.593 464.748 105.891C465.001 106.795 464.841 107.386 464.266 107.664C458.302 110.488 447.613 118.353 441.889 115.035C441.526 114.824 441.273 114.52 441.129 114.123C440.446 112.215 440.644 110.4 441.725 108.677C441.855 108.482 441.834 108.223 441.674 108.051C441.514 107.879 441.258 107.84 441.053 107.955C436.52 110.362 417.866 120.455 414.345 115.389C414.1 115.035 413.775 114.933 413.37 115.085C408.71 116.922 400.427 118.264 396.451 114.237C396.13 113.916 395.995 113.528 396.046 113.072C396.755 106.36 405.265 100.116 404.695 93.6832C404.624 92.8962 404.201 92.1838 403.542 91.7439C402.883 91.304 402.06 91.1837 401.301 91.4163C386.408 95.9627 381.875 104.27 373.288 116.352C372.798 117.04 371.881 117.271 371.123 116.896L369.401 116.035C369.161 115.915 368.981 115.701 368.905 115.442C368.828 115.184 368.861 114.903 368.995 114.667C371.68 109.94 374.453 105.266 377.316 100.648C379.114 97.7483 376.809 95.2282 373.681 95.1902C362.473 95.0762 350.683 108.462 347.289 118.96C347.043 119.71 346.47 120.307 345.731 120.583C344.992 120.859 344.167 120.784 343.49 120.379C340.995 118.885 341.362 117.175 342.68 114.883C348.923 104.068 352.633 95.4941 360.46 89.808C360.84 89.5294 361.215 89.5294 361.587 89.808C362.296 90.3399 362.499 91.1377 362.195 92.2015C362.121 92.4463 362.216 92.7105 362.428 92.853C362.64 92.9955 362.921 92.9829 363.119 92.822C371.224 86.49 377.683 88.7189 385.408 93.6452C385.788 93.8816 386.147 93.852 386.484 93.5565C391.93 88.7949 412.775 79.6895 409.545 95.2535C408.342 101.117 405.772 104.296 402.871 109.285C402.385 110.121 402.443 111.166 403.018 111.943C403.594 112.72 404.577 113.079 405.518 112.856L412.496 111.235C412.969 111.126 413.315 110.856 413.535 110.425C419.968 97.9889 430.023 87.7311 444.46 85.8062C450.285 85.021 456.744 89.58 451.982 95.7474C451.087 96.904 450.205 98.0311 449.336 99.1287C448.762 99.8463 448.863 99.9518 449.64 99.4453ZM445.84 89.9473C435.545 89.5674 422.336 102.193 417.98 110.476C417.698 111.01 417.702 111.65 417.989 112.181C418.276 112.712 418.809 113.065 419.411 113.122C422.931 113.452 430.466 109.614 433.632 107.905C440.175 104.359 444.865 99.3651 447.702 92.9233C447.989 92.2803 447.937 91.5365 447.564 90.9395C447.19 90.3424 446.544 89.9704 445.84 89.9473Z" fill="#fdf4e7" fill-rule="nonzero" opacity="1" stroke="none"/>
<path d="M166.372 125.761C167.098 125.769 167.895 125.702 168.765 125.558C177.528 124.047 186.625 121.996 196.056 119.404C196.375 119.318 196.713 119.448 196.892 119.725C197.071 120.003 197.051 120.364 196.841 120.619C192.966 125.191 170.69 129.32 164.383 130.244C162.864 130.464 161.699 130.046 160.888 128.99C160.647 128.677 160.559 128.277 160.647 127.901C162.129 121.05 168.562 114.693 173.045 109.311C173.172 109.16 173.184 108.945 173.076 108.781C172.968 108.617 172.765 108.544 172.577 108.601L169.31 109.614C169.126 109.672 168.927 109.648 168.762 109.549C168.597 109.45 168.483 109.284 168.448 109.095L168.043 106.942C167.942 106.368 167.672 106.275 167.233 106.664L157 115.756C156.607 116.102 156.064 116.217 155.569 116.06C154.429 115.689 153.995 115.022 154.265 114.06C154.366 113.705 154.619 113.308 155.025 112.869C159.389 108.116 164.219 103.561 169.512 99.2047C169.974 98.8227 170.593 98.6885 171.171 98.8445C171.75 99.0005 172.217 99.4274 172.425 99.9898L173.603 103.168C173.787 103.663 174.331 103.921 174.831 103.751L188.496 99.23C189.015 99.0551 189.586 99.2569 189.88 99.719C190.174 100.181 190.115 100.784 189.737 101.18C184.316 106.816 177.199 111.109 172.602 116.276C170.188 118.994 167.959 121.865 165.916 124.887C165.798 125.057 165.785 125.278 165.88 125.462C165.976 125.645 166.165 125.76 166.372 125.761Z" fill="#fdf4e7" fill-rule="nonzero" opacity="1" stroke="none"/>
<path d="M208.365 128.256C207.09 127.665 206.098 126.728 205.389 125.444C204.689 124.178 204.997 123.245 206.314 122.646C210.012 120.949 212.025 125.786 210.619 127.686C210.102 128.385 209.16 128.623 208.365 128.256Z" fill="#fdf4e7" fill-rule="nonzero" opacity="1" stroke="none"/>
</g>
</svg>
