<?xml version="1.0" encoding="UTF-8" standalone="no"?>
<!DOCTYPE svg PUBLIC "-//W3C//DTD SVG 1.1//EN" "http://www.w3.org/Graphics/SVG/1.1/DTD/svg11.dtd">
<svg xmlns="http://www.w3.org/2000/svg" version="1.1" viewBox="0.00 0.00 302.00 57.00">
<path fill="#ffffff" d="
  M 17.32 9.56
  C 11.95 8.13 8.76 9.40 8.23 15.25
  Q 6.96 29.05 13.97 40.38
  A 0.34 0.34 0.0 0 1 13.46 40.81
  Q 3.26 32.06 0.98 18.76
  C 0.15 13.93 0.52 3.06 6.04 0.74
  Q 9.27 -0.62 12.75 2.27
  C 20.53 8.73 29.24 12.64 39.52 10.76
  A 0.22 0.22 0.0 0 1 39.63 11.18
  C 30.90 14.39 25.53 11.75 17.32 9.56
  Z"
/>
<path fill="#ffffff" d="
  M 40.23 37.44
  C 39.53 38.12 38.79 39.50 37.55 39.96
  A 0.29 0.29 0.0 0 1 37.24 39.49
  C 43.39 33.32 45.28 23.49 45.69 15.16
  C 46.38 1.07 34.26 3.31 25.94 7.57
  A 0.27 0.27 0.0 0 1 25.65 7.12
  C 30.20 3.58 37.34 -0.10 43.10 0.95
  C 57.42 3.54 46.90 31.06 40.23 37.44
  Z"
/>
<path fill="#c7b462" fill-opacity="0.992" d="
  M 139.30 17.77
  Q 145.21 17.18 151.11 17.99
  Q 151.60 18.06 151.49 18.54
  Q 151.44 18.78 151.21 18.93
  C 151.05 19.04 140.22 18.84 138.68 19.01
  A 1.04 1.03 9.9 0 0 137.86 19.58
  Q 135.46 24.42 134.50 29.70
  Q 134.29 30.87 135.47 30.91
  L 151.25 31.45
  Q 151.91 31.47 151.44 31.93
  L 151.25 32.13
  Q 151.18 32.20 151.08 32.20
  L 129.09 32.36
  A 0.39 0.39 0.0 0 1 129.05 31.58
  L 132.53 31.24
  Q 133.00 31.19 133.08 30.72
  C 134.62 21.53 138.52 14.68 143.56 6.42
  A 0.41 0.41 0.0 0 0 143.18 5.80
  L 139.92 6.05
  Q 139.51 6.09 139.48 5.67
  Q 139.47 5.43 139.61 5.28
  Q 139.70 5.18 139.91 5.16
  C 145.05 4.57 159.14 3.38 162.55 6.17
  Q 162.94 6.48 162.94 6.78
  Q 162.94 6.99 162.78 7.18
  Q 162.44 7.56 162.07 7.20
  L 161.41 6.54
  A 1.47 1.45 -18.0 0 0 160.59 6.13
  Q 153.01 5.03 145.40 5.89
  A 0.92 0.90 -78.4 0 0 144.70 6.36
  L 138.80 17.02
  Q 138.33 17.87 139.30 17.77
  Z"
/>
<path fill="#c7b462" fill-opacity="0.992" d="
  M 70.28 22.83
  C 68.26 23.85 64.92 25.85 66.65 28.64
  C 74.52 41.35 92.24 16.45 85.70 7.83
  C 81.38 2.13 69.51 8.87 70.93 15.66
  Q 71.02 16.08 70.73 16.39
  Q 70.62 16.50 70.51 16.62
  Q 70.24 16.89 70.10 16.53
  C 66.64 7.49 85.08 -1.26 87.99 10.32
  C 89.82 17.62 83.01 28.85 76.31 32.12
  C 71.62 34.40 67.08 32.93 64.94 27.96
  A 1.16 1.10 -48.8 0 1 64.91 27.15
  Q 66.36 22.65 71.03 21.54
  Q 71.50 21.42 71.65 20.97
  L 75.21 9.73
  A 0.41 0.41 0.0 0 1 75.82 9.51
  Q 76.31 9.81 76.18 10.23
  Q 74.58 15.24 73.09 20.29
  Q 72.91 20.89 73.53 20.97
  C 74.39 21.07 75.42 20.46 76.25 20.84
  Q 76.64 21.02 76.76 21.38
  Q 76.98 22.00 76.33 22.00
  L 73.20 22.00
  Q 72.54 22.00 72.35 22.63
  L 71.00 27.04
  Q 70.82 27.63 70.26 27.36
  Q 70.00 27.23 69.89 26.94
  Q 69.82 26.73 69.92 26.41
  Q 70.46 24.86 70.91 23.36
  A 0.45 0.45 0.0 0 0 70.28 22.83
  Z"
/>
<path fill="#c7b462" fill-opacity="0.992" d="
  M 282.62 17.51
  L 280.37 16.36
  A 0.89 0.88 -47.5 0 0 279.51 16.40
  C 274.30 19.73 268.79 23.34 262.73 24.20
  C 257.27 24.98 248.43 25.74 245.22 20.01
  Q 244.95 19.52 244.50 19.86
  C 239.62 23.47 235.54 22.88 230.11 23.95
  C 225.87 24.78 216.52 25.58 218.43 17.86
  A 1.04 1.04 0.0 0 0 217.12 16.62
  Q 212.40 18.05 208.22 20.66
  A 2.08 2.08 0.0 0 1 205.50 20.21
  Q 204.35 18.81 205.02 17.27
  A 1.12 1.11 -89.9 0 0 203.56 15.80
  Q 196.89 18.65 191.42 23.41
  A 1.19 1.17 27.4 0 1 190.51 23.69
  C 187.42 23.36 157.70 28.42 163.34 18.36
  C 165.76 14.05 172.66 7.48 178.26 8.75
  A 1.94 1.94 0.0 0 1 179.61 11.40
  C 177.58 16.17 170.89 20.25 166.35 22.05
  A 0.54 0.54 0.0 0 0 166.49 23.08
  Q 177.97 24.38 189.29 22.21
  Q 189.80 22.12 190.02 21.65
  L 192.13 17.17
  A 0.72 0.71 52.5 0 1 193.48 17.35
  C 193.70 18.54 192.12 19.71 192.27 20.25
  Q 192.39 20.69 192.76 20.42
  C 194.53 19.10 203.28 12.88 205.81 14.67
  A 1.04 1.04 0.0 0 1 206.25 15.52
  L 206.25 18.99
  A 0.53 0.53 0.0 0 0 207.01 19.46
  Q 211.67 17.21 216.26 15.24
  Q 217.74 14.60 218.78 15.56
  C 221.07 17.72 217.83 22.83 223.00 23.18
  Q 227.84 23.51 232.52 22.32
  A 0.76 0.74 -2.5 0 0 233.08 21.72
  C 233.74 17.50 246.99 11.96 249.72 14.84
  Q 250.16 15.31 249.52 15.26
  Q 241.05 14.67 234.92 20.54
  A 0.76 0.76 0.0 0 0 235.40 21.85
  C 239.18 22.08 242.89 19.41 245.39 16.86
  Q 246.07 16.17 246.24 17.12
  L 246.73 19.88
  A 0.64 0.63 -70.8 0 0 246.87 20.18
  C 251.40 25.52 262.90 23.75 268.31 21.32
  Q 272.37 19.50 278.47 15.74
  Q 278.94 15.45 278.51 15.10
  C 276.47 13.42 277.02 11.02 279.66 10.71
  Q 281.11 10.54 282.47 10.92
  A 1.10 1.08 -0.4 0 1 283.24 11.67
  Q 283.74 13.41 282.16 14.51
  Q 280.39 15.75 282.46 16.37
  L 286.54 17.59
  A 0.31 0.31 0.0 0 1 286.57 18.17
  L 281.89 19.98
  A 1.54 1.53 60.9 0 0 281.23 22.33
  C 283.33 25.10 296.30 22.41 299.52 21.57
  Q 300.17 21.39 300.77 21.62
  A 0.49 0.48 -42.0 0 1 300.72 22.54
  C 297.47 23.45 278.76 27.71 279.50 20.85
  Q 279.56 20.29 280.03 20.00
  L 282.66 18.33
  A 0.47 0.47 0.0 0 0 282.62 17.51
  Z
  M 177.39 9.50
  C 171.97 10.42 164.80 15.40 164.18 20.76
  Q 164.10 21.43 164.74 21.23
  Q 173.36 18.60 178.46 11.18
  A 1.08 1.08 0.0 0 0 177.39 9.50
  Z
  M 281.28 11.81
  L 279.53 11.71
  A 0.48 0.48 0.0 0 0 279.02 12.17
  L 279.01 12.36
  A 2.07 1.24 -86.9 0 0 280.14 14.49
  L 280.38 14.50
  A 2.07 1.24 -86.9 0 0 281.73 12.50
  L 281.74 12.31
  A 0.48 0.48 0.0 0 0 281.28 11.81
  Z"
/>
<path fill="#c7b462" fill-opacity="0.992" d="
  M 105.11 16.08
  L 110.09 17.64
  A 0.34 0.34 0.0 0 1 110.03 18.31
  Q 107.37 18.66 105.03 20.28
  A 1.77 1.77 0.0 0 0 105.98 23.50
  Q 114.67 23.76 122.76 21.51
  Q 123.85 21.20 124.29 21.94
  Q 124.54 22.38 124.05 22.51
  C 119.44 23.79 102.83 27.43 102.74 20.92
  A 0.56 0.53 73.3 0 1 102.97 20.47
  L 106.28 18.14
  A 0.31 0.31 0.0 0 0 106.24 17.61
  L 103.64 16.35
  Q 103.13 16.10 102.66 16.42
  Q 96.89 20.43 90.46 23.19
  Q 89.46 23.61 88.82 23.13
  Q 88.49 22.88 88.85 22.69
  L 101.73 15.99
  Q 102.20 15.75 101.91 15.30
  L 100.58 13.27
  A 0.84 0.83 -45.8 0 1 100.57 12.36
  C 101.73 10.49 106.19 9.62 106.88 12.38
  A 0.66 0.65 58.6 0 1 106.74 12.98
  L 104.87 15.25
  A 0.52 0.52 0.0 0 0 105.11 16.08
  Z
  M 103.79 14.63
  L 105.28 12.72
  A 0.43 0.43 0.0 0 0 105.20 12.12
  L 105.09 12.03
  A 1.85 1.48 37.9 0 0 102.72 12.06
  L 102.53 12.31
  A 1.85 1.48 37.9 0 0 103.08 14.62
  L 103.19 14.70
  A 0.43 0.43 0.0 0 0 103.79 14.63
  Z"
/>
<circle fill="#c7b462" fill-opacity="0.992" cx="126.80" cy="23.29" r="1.35"/>
<path fill="#ffffff" d="
  M 34.25 42.96
  A 1.08 1.07 -34.8 0 0 35.74 43.22
  Q 40.36 40.06 43.70 35.54
  A 0.18 0.17 -18.6 0 1 44.01 35.69
  C 41.78 43.00 36.16 53.86 28.37 55.96
  C 16.19 59.24 8.51 43.61 5.34 34.46
  A 0.19 0.19 0.0 0 1 5.68 34.29
  Q 9.27 39.84 14.78 43.44
  Q 15.25 43.75 15.62 43.32
  Q 17.64 40.94 18.73 40.71
  C 22.85 39.87 31.40 39.00 34.25 42.96
  Z
  M 27.75 48.44
  L 27.72 49.18
  Q 27.69 49.67 28.06 49.99
  C 30.20 51.85 32.50 48.63 33.12 46.64
  Q 33.29 46.09 32.92 45.65
  L 29.77 41.97
  A 0.71 0.71 0.0 0 0 28.85 41.83
  Q 25.22 44.18 21.50 41.83
  A 0.85 0.84 36.3 0 0 20.41 41.99
  L 17.33 45.59
  Q 16.94 46.04 17.10 46.62
  Q 17.91 49.64 20.82 50.50
  A 1.29 1.28 -0.6 0 0 22.41 48.88
  L 22.26 48.39
  Q 22.11 47.91 22.61 47.92
  L 27.37 48.03
  Q 27.77 48.04 27.75 48.44
  Z"
/>
<path fill="#e1e4d6" fill-opacity="0.973" d="
  M 127.57 50.42
  L 131.52 44.29
  A 0.58 0.58 0.0 0 1 132.58 44.59
  L 132.82 51.13
  Q 132.83 51.63 132.34 51.71
  Q 131.77 51.81 131.75 51.25
  Q 131.66 48.72 132.06 46.37
  A 0.40 0.40 0.0 0 0 131.32 46.09
  L 127.80 51.64
  A 0.90 0.89 -28.4 0 1 126.15 51.15
  L 126.27 45.16
  Q 126.27 44.69 126.75 44.74
  Q 127.30 44.79 127.23 45.26
  Q 126.85 47.72 127.04 50.28
  A 0.29 0.29 0.0 0 0 127.57 50.42
  Z"
/>
<path fill="#e1e4d6" fill-opacity="0.973" d="
  M 67.11 45.84
  L 66.77 51.38
  A 0.56 0.55 1.6 0 1 66.21 51.90
  L 65.58 51.90
  Q 64.73 51.90 65.33 51.29
  L 65.67 50.96
  Q 65.90 50.73 65.91 50.40
  L 66.17 45.15
  Q 66.20 44.50 66.85 44.50
  L 70.68 44.50
  Q 71.35 44.50 71.37 45.17
  L 71.56 50.53
  A 0.62 0.62 0.0 0 0 72.76 50.71
  L 74.86 44.78
  A 0.73 0.73 0.0 0 1 76.23 44.76
  L 78.42 50.52
  A 0.49 0.48 5.6 0 0 78.64 50.78
  Q 79.07 51.03 79.00 51.52
  A 0.43 0.43 0.0 0 1 78.26 51.74
  C 75.68 48.92 73.96 51.89 71.05 51.62
  Q 70.49 51.57 70.49 51.00
  L 70.50 45.99
  A 0.75 0.74 -0.0 0 0 69.74 45.24
  L 67.71 45.27
  A 0.61 0.61 0.0 0 0 67.11 45.84
  Z
  M 75.84 49.77
  L 76.20 49.99
  Q 76.72 50.30 76.76 49.69
  Q 76.88 47.84 75.80 46.32
  Q 75.30 45.60 75.06 46.45
  L 74.28 49.22
  A 0.53 0.52 2.4 0 0 74.89 49.88
  L 75.64 49.73
  Q 75.74 49.71 75.84 49.77
  Z"
/>
<path fill="#e1e4d6" fill-opacity="0.973" d="
  M 79.80 47.87
  Q 79.55 46.51 79.85 45.03
  A 0.70 0.70 0.0 0 1 80.56 44.46
  L 84.70 44.59
  A 0.28 0.27 44.2 0 1 84.71 45.14
  L 81.32 45.31
  A 0.61 0.61 0.0 0 0 80.74 45.93
  L 80.77 47.40
  A 0.61 0.61 0.0 0 0 81.60 47.96
  C 86.03 46.28 87.32 53.32 80.56 51.91
  Q 80.09 51.81 79.96 51.35
  Q 79.61 50.04 79.81 48.80
  Q 79.88 48.33 79.80 47.87
  Z
  M 84.3572 50.1924
  A 1.89 1.48 8.9 0 0 82.7190 48.4378
  A 1.89 1.48 8.9 0 0 80.6228 49.6076
  A 1.89 1.48 8.9 0 0 82.2610 51.3622
  A 1.89 1.48 8.9 0 0 84.3572 50.1924
  Z"
/>
<path fill="#e1e4d6" fill-opacity="0.973" d="
  M 92.31 49.45
  A 2.50 2.50 0.0 0 1 89.81 51.95
  L 88.75 51.95
  A 2.50 2.50 0.0 0 1 86.25 49.45
  L 86.25 47.05
  A 2.50 2.50 0.0 0 1 88.75 44.55
  L 89.81 44.55
  A 2.50 2.50 0.0 0 1 92.31 47.05
  L 92.31 49.45
  Z
  M 89.2363 51.4200
  A 3.12 2.34 89.7 0 0 91.5600 48.2877
  A 3.12 2.34 89.7 0 0 89.2037 45.1800
  A 3.12 2.34 89.7 0 0 86.8800 48.3123
  A 3.12 2.34 89.7 0 0 89.2363 51.4200
  Z"
/>
<path fill="#e1e4d6" fill-opacity="0.973" d="
  M 94.25 49.37
  L 94.25 51.48
  Q 94.25 51.89 93.85 51.78
  Q 93.66 51.72 93.46 51.66
  Q 93.37 51.62 93.37 51.52
  L 93.39 45.00
  Q 93.39 44.39 94.00 44.43
  L 97.80 44.67
  A 0.86 0.85 -10.0 0 1 98.54 45.18
  Q 99.40 47.16 98.10 48.69
  A 0.81 0.79 -66.0 0 1 97.40 48.97
  L 94.96 48.72
  A 0.65 0.65 0.0 0 0 94.25 49.37
  Z
  M 97.9810 46.3474
  A 1.01 1.01 0.0 0 0 97.0014 45.3079
  L 95.1622 45.2533
  A 1.01 1.01 0.0 0 0 94.1227 46.2329
  L 94.0990 47.0326
  A 1.01 1.01 0.0 0 0 95.0786 48.0721
  L 96.9178 48.1267
  A 1.01 1.01 0.0 0 0 97.9573 47.1471
  L 97.9810 46.3474
  Z"
/>
<path fill="#e1e4d6" fill-opacity="0.973" d="
  M 101.23 50.96
  L 100.25 51.81
  A 0.36 0.36 0.0 0 1 99.68 51.41
  L 102.03 44.95
  A 0.79 0.79 0.0 0 1 103.51 44.94
  L 105.99 51.52
  A 0.30 0.30 0.0 0 1 105.47 51.81
  Q 104.25 50.17 102.12 50.54
  Q 101.62 50.62 101.23 50.96
  Z
  M 101.86 49.81
  L 103.80 49.71
  A 0.24 0.24 0.0 0 0 104.02 49.46
  L 104.02 49.32
  A 3.10 1.13 87.1 0 0 102.73 46.28
  L 102.57 46.29
  A 3.10 1.13 87.1 0 0 101.60 49.44
  L 101.61 49.58
  A 0.24 0.24 0.0 0 0 101.86 49.81
  Z"
/>
<path fill="#e1e4d6" fill-opacity="0.973" d="
  M 109.77 45.91
  L 109.72 51.52
  A 0.45 0.45 0.0 0 1 108.82 51.52
  L 108.77 45.80
  A 0.53 0.53 0.0 0 0 108.25 45.27
  L 106.75 45.24
  A 0.30 0.30 0.0 0 1 106.70 44.64
  Q 109.04 44.15 111.29 44.60
  A 0.31 0.31 0.0 0 1 111.28 45.21
  L 110.26 45.35
  Q 109.77 45.41 109.77 45.91
  Z"
/>
<path fill="#e1e4d6" fill-opacity="0.973" d="
  M 118.7549 49.4278
  A 2.39 2.39 0.0 0 1 116.3358 51.7884
  L 114.9159 51.7711
  A 2.39 2.39 0.0 0 1 112.5553 49.3520
  L 112.5851 46.9122
  A 2.39 2.39 0.0 0 1 115.0042 44.5516
  L 116.4241 44.5689
  A 2.39 2.39 0.0 0 1 118.7847 46.9880
  L 118.7549 49.4278
  Z
  M 117.9476 47.2889
  A 1.93 1.93 0.0 0 0 116.0516 45.3255
  L 115.4717 45.3154
  A 1.93 1.93 0.0 0 0 113.5083 47.2114
  L 113.4724 49.2711
  A 1.93 1.93 0.0 0 0 115.3684 51.2345
  L 115.9483 51.2446
  A 1.93 1.93 0.0 0 0 117.9117 49.3486
  L 117.9476 47.2889
  Z"
/>
<path fill="#e1e4d6" fill-opacity="0.973" d="
  M 120.86 49.38
  L 120.67 51.46
  Q 120.64 51.86 120.25 51.75
  Q 120.12 51.71 119.99 51.66
  A 0.33 0.32 -81.5 0 1 119.77 51.35
  L 119.97 46.03
  A 2.06 2.05 -78.3 0 1 122.77 44.19
  C 126.49 45.64 125.42 50.22 122.00 48.71
  A 0.82 0.81 -75.2 0 0 120.86 49.38
  Z
  M 124.2073 46.4217
  A 1.04 1.04 0.0 0 0 123.2482 45.3066
  L 121.8522 45.2017
  A 1.04 1.04 0.0 0 0 120.7371 46.1607
  L 120.6727 47.0183
  A 1.04 1.04 0.0 0 0 121.6318 48.1334
  L 123.0278 48.2383
  A 1.04 1.04 0.0 0 0 124.1429 47.2793
  L 124.2073 46.4217
  Z"
/>
<path fill="#e1e4d6" fill-opacity="0.973" d="
  M 135.64 50.02
  Q 135.53 51.26 134.62 51.99
  A 0.21 0.21 0.0 0 1 134.32 51.95
  Q 134.22 51.84 134.13 51.76
  Q 133.91 51.55 134.07 51.30
  L 134.93 49.94
  A 0.92 0.92 0.0 0 0 134.84 48.83
  Q 133.48 47.34 134.18 45.25
  A 0.87 0.87 0.0 0 1 134.96 44.66
  L 138.82 44.44
  A 0.64 0.63 88.3 0 1 139.49 45.08
  L 139.47 51.65
  A 0.27 0.27 0.0 0 1 139.00 51.84
  Q 138.13 50.97 138.58 49.62
  A 0.66 0.66 0.0 0 0 137.76 48.77
  L 136.30 49.21
  Q 135.70 49.39 135.64 50.02
  Z
  M 138.5190 46.2256
  A 1.06 1.06 0.0 0 0 137.4120 45.2148
  L 135.7937 45.2883
  A 1.06 1.06 0.0 0 0 134.7829 46.3953
  L 134.8210 47.2344
  A 1.06 1.06 0.0 0 0 135.9280 48.2452
  L 137.5463 48.1717
  A 1.06 1.06 0.0 0 0 138.5571 47.0647
  L 138.5190 46.2256
  Z"
/>
<path fill="#e1e4d6" fill-opacity="0.973" d="
  M 146.18 48.64
  L 147.73 44.70
  A 0.36 0.36 0.0 0 1 148.18 44.48
  Q 148.35 44.53 148.51 44.59
  Q 148.76 44.67 148.65 44.91
  L 145.38 51.92
  A 0.55 0.54 45.4 0 1 144.39 51.91
  Q 144.07 51.19 144.90 50.73
  A 0.64 0.64 0.0 0 0 145.16 49.87
  Q 143.94 47.55 142.95 45.15
  Q 142.82 44.83 142.93 44.68
  Q 143.00 44.58 143.14 44.54
  Q 143.53 44.42 143.69 44.80
  L 145.32 48.66
  A 0.47 0.46 -46.2 0 0 146.18 48.64
  Z"
/>
<path fill="#e1e4d6" fill-opacity="0.973" d="
  M 154.27 45.79
  A 1.71 1.70 -57.9 0 0 150.96 46.55
  Q 151.20 48.37 150.71 50.87
  Q 150.60 51.39 150.36 51.63
  Q 150.23 51.75 150.09 51.82
  Q 149.56 52.07 149.65 51.49
  Q 150.11 48.34 150.17 45.11
  Q 150.18 44.50 150.79 44.50
  L 154.54 44.50
  Q 155.34 44.50 155.35 45.29
  L 155.47 51.39
  Q 155.49 52.20 154.78 51.79
  L 154.39 51.55
  Q 154.24 51.46 154.29 51.30
  Q 155.08 48.24 154.27 45.79
  Z"
/>
<path fill="#e1e4d6" fill-opacity="0.973" d="
  M 161.85 48.57
  L 161.91 51.22
  A 0.64 0.64 0.0 0 1 161.27 51.88
  L 157.47 51.93
  Q 156.74 51.94 156.75 51.21
  L 156.76 44.80
  A 0.39 0.39 0.0 0 1 157.54 44.75
  L 157.87 47.24
  A 0.60 0.59 -3.9 0 0 158.46 47.75
  L 161.01 47.75
  A 0.84 0.84 0.0 0 1 161.85 48.57
  Z
  M 161.3356 49.9699
  A 1.91 1.45 3.9 0 0 159.5286 48.3934
  A 1.91 1.45 3.9 0 0 157.5244 49.7101
  A 1.91 1.45 3.9 0 0 159.3314 51.2866
  A 1.91 1.45 3.9 0 0 161.3356 49.9699
  Z"
/>
<rect fill="#e1e4d6" fill-opacity="0.973" x="-0.48" y="-3.55" transform="translate(163.74,48.16) rotate(-0.4)" width="0.96" height="7.10" rx="0.45"/>
<path fill="#e1e4d6" fill-opacity="0.973" d="
  M 166.50 45.93
  L 166.50 47.00
  Q 166.50 47.75 167.25 47.75
  L 169.75 47.75
  Q 170.31 47.75 170.58 48.23
  Q 171.39 49.66 170.77 51.21
  A 1.12 1.09 12.0 0 1 169.70 51.89
  L 166.05 51.74
  Q 165.64 51.72 165.65 51.31
  L 165.80 45.08
  Q 165.81 44.47 166.42 44.48
  L 170.32 44.55
  A 0.32 0.32 0.0 0 1 170.32 45.19
  L 167.13 45.29
  A 0.64 0.64 0.0 0 0 166.50 45.93
  Z
  M 169.94 50.79
  L 170.00 49.09
  A 0.49 0.49 0.0 0 0 169.53 48.58
  L 168.21 48.53
  A 1.67 0.88 2.2 0 0 166.51 49.34
  L 166.47 50.26
  A 1.67 0.88 2.2 0 0 168.11 51.21
  L 169.43 51.26
  A 0.49 0.49 0.0 0 0 169.94 50.79
  Z"
/>
<path fill="#e1e4d6" fill-opacity="0.973" d="
  M 178.0146 49.5496
  A 2.39 2.39 0.0 0 1 175.6329 51.9479
  L 174.4529 51.9520
  A 2.39 2.39 0.0 0 1 172.0546 49.5704
  L 172.0454 46.9504
  A 2.39 2.39 0.0 0 1 174.4271 44.5521
  L 175.6071 44.5480
  A 2.39 2.39 0.0 0 1 178.0054 46.9296
  L 178.0146 49.5496
  Z
  M 177.2277 46.9363
  A 1.63 1.63 0.0 0 0 175.5948 45.3091
  L 174.6148 45.3109
  A 1.63 1.63 0.0 0 0 172.9877 46.9437
  L 172.9923 49.6237
  A 1.63 1.63 0.0 0 0 174.6252 51.2509
  L 175.6052 51.2491
  A 1.63 1.63 0.0 0 0 177.2323 49.6163
  L 177.2277 46.9363
  Z"
/>
<path fill="#e1e4d6" fill-opacity="0.973" d="
  M 184.40 51.92
  C 183.25 51.69 182.42 49.65 180.75 48.79
  A 0.52 0.52 0.0 0 0 180.00 49.25
  L 180.00 51.50
  A 0.25 0.25 0.0 0 1 179.75 51.75
  Q 179.62 51.75 179.49 51.75
  Q 179.28 51.75 179.28 51.53
  Q 179.20 46.50 179.26 45.00
  Q 179.27 44.64 179.58 44.58
  Q 180.13 44.48 180.09 45.03
  L 179.98 47.04
  A 0.59 0.58 69.8 0 0 180.97 47.50
  Q 182.30 46.23 183.61 44.73
  Q 183.82 44.50 184.03 44.47
  Q 184.20 44.45 184.38 44.54
  A 0.28 0.28 0.0 0 1 184.46 44.98
  L 182.05 47.67
  A 0.62 0.62 0.0 0 0 182.06 48.52
  L 184.72 51.35
  A 0.34 0.34 0.0 0 1 184.40 51.92
  Z"
/>
</svg>
