<?xml version="1.0" encoding="UTF-8" standalone="no"?>
<!DOCTYPE svg PUBLIC "-//W3C//DTD SVG 1.1//EN" "http://www.w3.org/Graphics/SVG/1.1/DTD/svg11.dtd">
<svg height="100%" stroke-miterlimit="10" style="fill-rule:nonzero;clip-rule:evenodd;stroke-linecap:round;stroke-linejoin:round;" version="1.1" viewBox="0 0 1024 1024" width="100%" xml:space="preserve" xmlns="http://www.w3.org/2000/svg" xmlns:xlink="http://www.w3.org/1999/xlink">
<defs/>
<g id="Слой-1">
<g opacity="1">
<g opacity="1"/>
<path d="M275.534 37.1032C418.166 152.491 588.614 238.459 770.968 194.502C772.043 194.123 773.222 194.687 773.601 195.761C773.98 196.836 773.416 198.015 772.342 198.394C644.477 255.745 503.333 223.12 371.69 173.554C259.851 131.314 203.416 184.314 197.578 295.008C189.794 444.051 220.129 618.85 312.966 739.846C318.613 747.249 317.621 748.317 309.99 743.052C198.265 667.157 128.208 548.793 86.5404 421.5C53.458 320.421 35.3715 63.3173 163.351 9.05763C198.151-5.70925 249.892 16.3838 275.534 37.1032Z" fill="#ffffff" fill-rule="nonzero" opacity="1" stroke="none"/>
<path d="M823.053 101.093C744.983 51.6412 589.988 98.1168 512.948 136.121C511.878 136.72 510.527 136.369 509.883 135.326C509.239 134.283 509.53 132.918 510.544 132.229C607.044 57.8227 731.59-4.56453 854.075 25.7705C939.013 46.7189 965.914 123.072 959.16 202.744C941.646 410.167 877.999 621.025 699.995 746.944C698.622 747.859 697.286 747.898 695.989 747.058C694.844 746.295 694.157 745.608 693.928 744.998C693.776 744.463 694.081 743.853 694.844 743.166C763.298 681.58 810.919 606.525 837.705 518C867.01 421.271 924.933 165.655 823.053 101.093Z" fill="#ffffff" fill-rule="nonzero" opacity="1" stroke="none"/>
<path d="M678.589 782.43C682.405 787.39 686.946 788.23 692.211 784.948C754.637 745.799 806.76 695.889 848.58 635.219C849.062 634.653 849.884 634.465 850.548 634.77C851.213 635.074 851.538 635.787 851.327 636.478C820.344 737.442 771.808 829.592 705.719 912.928C596.055 1051.32 418.166 1055.45 305.869 911.898C235.278 821.541 181.4 722.18 144.234 613.813C143.918 613.117 144.226 612.297 144.921 611.981C145.617 611.665 146.437 611.973 146.753 612.668C191.473 682.572 248.671 740.228 318.346 785.635C323.22 788.804 329.679 787.761 333.227 783.231C392.409 708.252 520.16 717.753 602.694 733.436C634.975 739.617 659.587 757.818 678.589 782.43ZM457.544 863.476L555.99 863.591C557.291 863.591 558.48 864.325 559.061 865.489C559.643 866.652 559.518 868.045 558.737 869.085C550.724 879.388 549.579 890.53 555.303 902.511C559.283 910.628 568.293 914.944 577.053 912.928C615.515 904.075 640.394 881.41 651.688 844.932C652.68 841.574 652.413 838.292 650.887 835.087C635.09 802.806 612.997 775.562 584.608 753.354C581.045 750.633 576.175 750.449 572.474 752.896C526.914 783.002 482.27 785.864 437.397 753.469C434.344 751.255 431.292 751.255 428.239 753.469C399.163 775.066 377.032 802.463 361.845 835.659C360.166 839.246 360.014 842.909 361.388 846.649C373.522 880.418 418.166 936.051 456.972 900.794C459.431 898.533 460.444 895.099 459.604 891.865L453.766 868.284C452.927 865.079 454.186 863.476 457.544 863.476Z" fill="#ffffff" fill-rule="nonzero" opacity="1" stroke="none"/>
</g>
</g>
</svg>